HIERARCHY
ROOT Hips
{
 OFFSET 0.000000 0.000000 0.000000
 CHANNELS 6 Xposition Yposition Zposition Yrotation Xrotation Zrotation
 JOINT Chest
 {
  OFFSET 0.000000 9.588913 -0.003946
  CHANNELS 3 Yrotation Xrotation Zrotation
  JOINT Chest2
  {
   OFFSET 0.000000 9.541882 0.008053
   CHANNELS 3 Yrotation Xrotation Zrotation
   JOINT Chest3
   {
    OFFSET 0.000000 9.501360 0.000000
    CHANNELS 3 Yrotation Xrotation Zrotation
    JOINT Chest4
    {
     OFFSET 0.000000 9.491660 0.000000
     CHANNELS 3 Yrotation Xrotation Zrotation
     JOINT Neck
     {
      OFFSET 0.000000 14.331917 0.000000
      CHANNELS 3 Yrotation Xrotation Zrotation
      JOINT Head
      {
       OFFSET 0.000000 8.884799 0.017034
       CHANNELS 3 Yrotation Xrotation Zrotation
       End Site
       {
        OFFSET 0.000000 16.896195 0.008993
       }
      }
     }
     JOINT RightCollar
     {
      OFFSET -2.923010 9.499495 0.000000
      CHANNELS 3 Yrotation Xrotation Zrotation
      JOINT RightShoulder
      {
       OFFSET -13.795216 0.000000 0.000000
       CHANNELS 3 Yrotation Xrotation Zrotation
       JOINT RightElbow
       {
        OFFSET -30.272209 0.000000 0.000000
        CHANNELS 3 Yrotation Xrotation Zrotation
        JOINT RightWrist
        {
         OFFSET -24.478199 0.000000 0.000000
         CHANNELS 3 Yrotation Xrotation Zrotation
         End Site
         {
          OFFSET -18.090752 0.000000 0.000000
         }
        }
       }
      }
     }
     JOINT LeftCollar
     {
      OFFSET 2.923010 9.499495 0.000000
      CHANNELS 3 Yrotation Xrotation Zrotation
      JOINT LeftShoulder
      {
       OFFSET 13.795216 0.000000 0.000000
       CHANNELS 3 Yrotation Xrotation Zrotation
       JOINT LeftElbow
       {
        OFFSET 30.272209 0.000000 0.000000
        CHANNELS 3 Yrotation Xrotation Zrotation
        JOINT LeftWrist
        {
         OFFSET 24.478199 0.000000 0.000000
         CHANNELS 3 Yrotation Xrotation Zrotation
         End Site
         {
          OFFSET 18.090752 0.000000 0.000000
         }
        }
       }
      }
     }
    }
   }
  }
 }
 JOINT RightHip
 {
  OFFSET -7.826875 0.019532 0.001973
  CHANNELS 3 Yrotation Xrotation Zrotation
  JOINT RightKnee
  {
   OFFSET 0.000000 -40.546152 -0.001885
   CHANNELS 3 Yrotation Xrotation Zrotation
   JOINT RightAnkle
   {
    OFFSET 0.000000 -39.417092 -0.003189
    CHANNELS 3 Yrotation Xrotation Zrotation
    JOINT RightToe
    {
     OFFSET 0.000000 -7.579396 17.243563
     CHANNELS 3 Yrotation Xrotation Zrotation
     End Site
     {
      OFFSET 0.000000 -1.500329 6.694466
     }
    }
   }
  }
 }
 JOINT LeftHip
 {
  OFFSET 7.826875 0.019532 0.001973
  CHANNELS 3 Yrotation Xrotation Zrotation
  JOINT LeftKnee
  {
   OFFSET 0.000000 -40.546152 -0.001885
   CHANNELS 3 Yrotation Xrotation Zrotation
   JOINT LeftAnkle
   {
    OFFSET 0.000000 -39.417092 -0.003189
    CHANNELS 3 Yrotation Xrotation Zrotation
    JOINT LeftToe
    {
     OFFSET 0.000000 -7.579396 17.243563
     CHANNELS 3 Yrotation Xrotation Zrotation
     End Site
     {
      OFFSET 0.000000 -1.500329 6.694466
     }
    }
   }
  }
 }
}
MOTION
Frames: 8
Frame Time: 0.008333
-25.167807 87.843011 -1.061371 -143.849422 -8.798307 -2.072723 4.827225 1.771292 -3.809172 2.720818 0.958225 -2.024818 3.395721 1.212673 -2.523825 2.720818 0.958225 -2.024818 -1.121338 32.445931 13.876937 -4.346380 12.592307 16.415552 6.276363 -7.785320 -10.620871 -16.000574 -43.015789 39.439358 66.913177 -66.193305 45.441559 -21.534879 -10.481386 36.477429 0.905719 0.634092 3.846767 6.153169 -0.139913 -82.831243 0.506922 -3.432021 1.432719 -1.510194 3.092734 1.036143 -6.306899 14.257430 -8.966074 -1.540114 2.356919 -1.781249 1.719986 -6.728263 8.778875 0.057156 -0.421218 0.034214 22.436400 15.303819 13.568419 12.746394 -3.502825 -0.892268 -0.509736 -3.728460 -9.319650 0.081515 0.439039 0.037990
-25.169468 87.843225 -1.060885 -143.848600 -8.801606 -2.069869 4.830684 1.776070 -3.809253 2.723166 0.961046 -2.025151 3.398641 1.216214 -2.524214 2.723166 0.961046 -2.025151 -1.122465 32.464345 13.889280 -4.349968 12.620779 16.432117 6.267673 -7.801998 -10.628378 -15.993297 -43.018518 39.401190 66.877443 -66.181590 45.494623 -21.550355 -10.476230 36.538506 0.905600 0.631857 3.849840 6.148021 -0.142815 -82.829419 0.516456 -3.432360 1.447015 -1.511966 3.090210 1.038263 -6.312552 14.257750 -8.970713 -1.545931 2.361514 -1.782130 1.725880 -6.730605 8.776366 0.056878 -0.421352 0.035183 22.434670 15.310077 13.563852 12.742103 -3.506484 -0.889707 -0.503449 -3.723061 -9.319851 0.081112 0.436721 0.037798
-25.170540 87.843226 -1.060221 -143.849382 -8.803128 -2.066518 4.834241 1.780161 -3.809531 2.725633 0.963426 -2.025932 3.401709 1.219208 -2.525167 2.725633 0.963426 -2.025932 -1.121958 32.480681 13.902991 -4.351992 12.646432 16.449865 6.252474 -7.821172 -10.635250 -15.976715 -43.017264 39.364491 66.757537 -66.192115 45.638758 -21.542529 -10.512833 36.570549 0.903054 0.629999 3.854096 6.148331 -0.147798 -82.827221 0.526040 -3.432275 1.457050 -1.511854 3.097566 1.043063 -6.314580 14.256982 -8.975058 -1.548971 2.364720 -1.782448 1.728121 -6.733137 8.773585 0.056738 -0.420379 0.035923 22.433952 15.312640 13.559835 12.740933 -3.505822 -0.889079 -0.501576 -3.720421 -9.319092 0.080981 0.435104 0.037440
-25.170860 87.842996 -1.059429 -143.850953 -8.802247 -2.062777 4.837925 1.783050 -3.810668 2.727911 0.965064 -2.027176 3.404544 1.221277 -2.526703 2.727911 0.965064 -2.027176 -1.119832 32.495457 13.917187 -4.352267 12.669821 16.467724 6.233210 -7.839402 -10.640014 -15.948789 -43.009616 39.331271 66.595727 -66.217716 45.827008 -21.515279 -10.573428 36.583102 0.898289 0.629709 3.860734 6.155185 -0.153510 -82.823280 0.532940 -3.431227 1.462014 -1.509399 3.109443 1.047769 -6.313601 14.256178 -8.979615 -1.547822 2.363508 -1.781132 1.726109 -6.734764 8.770728 0.056878 -0.418419 0.035982 22.433111 15.310610 13.554701 12.743702 -3.500912 -0.888380 -0.502963 -3.720533 -9.318197 0.081464 0.434604 0.037078
-25.170223 87.842581 -1.058878 -143.851674 -8.799658 -2.060588 4.841300 1.784378 -3.811474 2.729796 0.965722 -2.028027 3.406895 1.222117 -2.527757 2.729796 0.965722 -2.028027 -1.118137 32.510226 13.930669 -4.352889 12.693113 16.484812 6.217853 -7.849681 -10.645358 -15.920119 -42.999164 39.305201 66.433391 -66.250725 46.016152 -21.476058 -10.640844 36.584201 0.894250 0.632000 3.867155 6.164828 -0.156266 -82.816826 0.535417 -3.428147 1.462832 -1.507287 3.115484 1.051733 -6.315089 14.255630 -8.983865 -1.542399 2.358180 -1.777104 1.722784 -6.735061 8.767162 0.057570 -0.416275 0.035227 22.432220 15.305465 13.549511 12.745726 -3.495925 -0.884563 -0.504985 -3.721400 -9.319892 0.082316 0.435257 0.037328
-25.168801 87.842030 -1.058753 -143.850382 -8.796533 -2.059844 4.843363 1.784377 -3.811851 2.730955 0.965643 -2.028283 3.408344 1.222026 -2.528075 2.730955 0.965643 -2.028283 -1.117277 32.525691 13.942410 -4.354089 12.717136 16.499985 6.210490 -7.848472 -10.651681 -15.901362 -42.991447 39.288736 66.317921 -66.279554 46.161719 -21.432778 -10.703596 36.577574 0.893256 0.635441 3.870124 6.171930 -0.153721 -82.807314 0.533821 -3.427419 1.461793 -1.510488 3.115319 1.055550 -6.320739 14.255879 -8.986792 -1.533416 2.350219 -1.773632 1.718989 -6.734553 8.764527 0.058441 -0.414407 0.033838 22.429524 15.300347 13.545592 12.745937 -3.493653 -0.880323 -0.506656 -3.721063 -9.322591 0.083044 0.436500 0.037773
-25.166787 87.841326 -1.058703 -143.846982 -8.791566 -2.058666 4.843746 1.782921 -3.812756 2.731175 0.964826 -2.028552 3.408623 1.221008 -2.528416 2.731175 0.964826 -2.028552 -1.116114 32.541475 13.952009 -4.354468 12.741155 16.512436 6.211515 -7.839097 -10.656344 -15.887768 -42.985285 39.276966 66.306415 -66.292253 46.202876 -21.389563 -10.750614 36.566526 0.894862 0.639416 3.870587 6.171603 -0.148876 -82.796286 0.530747 -3.433282 1.460345 -1.517986 3.110544 1.057730 -6.327021 14.254839 -8.988127 -1.526179 2.341831 -1.773272 1.715444 -6.734799 8.764090 0.058883 -0.412276 0.032064 22.422786 15.294434 13.541642 12.745983 -3.492052 -0.880282 -0.505841 -3.720286 -9.321460 0.083417 0.438419 0.037072
-25.164244 87.840493 -1.058676 -143.841549 -8.784583 -2.057163 4.842885 1.780969 -3.813556 2.730591 0.963440 -2.028638 3.407900 1.219273 -2.528535 2.730591 0.963440 -2.028638 -1.114637 32.556680 13.959711 -4.354084 12.763954 16.522418 6.220216 -7.827015 -10.659547 -15.868029 -42.973372 39.261899 66.446581 -66.284049 46.086745 -21.352784 -10.777434 36.553740 0.899346 0.642913 3.870427 6.162185 -0.144706 -82.788159 0.528819 -3.446810 1.460417 -1.525777 3.104040 1.057888 -6.331798 14.251341 -8.987542 -1.523315 2.335598 -1.775029 1.712051 -6.736786 8.764538 0.058888 -0.409866 0.030465 22.411805 15.286607 13.536381 12.748051 -3.489585 -0.882298 -0.503021 -3.720001 -9.318128 0.083779 0.441256 0.036021
